
		<svg width="3123.673462786877" height="680.2040453278233" xmlns="http://www.w3.org/2000/svg" xmlns:xlink="http://www.w3.org/1999/xlink" version="1.1">
            <g transform="scale(6.183673139343849) translate(10, 10)">
				<defs id="SvgjsDefs1002"/><g id="main_text" rel="mainfill" name="main_text" xmlns:name="mainText_mainfill" fill="#000000" transform="translate(113.09652925566206, 0.7260036468505859)"><path d="M12.126 33.558 q4.23 0 6.6975 1.927 t2.6085 5.358 l0 11.938 q0 1.692 0.188 3.619 l-3.76 0 q-0.141 -1.504 -0.141 -3.384 l-0.094 0 q-1.457 2.162 -3.3605 3.055 t-4.4415 0.893 q-3.431 0 -5.5695 -1.833 t-2.1385 -4.841 q0 -3.807 3.196 -5.7575 t9.024 -1.9505 l3.149 0 l0 -0.799 q0 -2.256 -1.4805 -3.5485 t-3.8775 -1.2925 q-1.786 0 -3.1255 0.5405 t-3.1725 1.9975 l-2.538 -2.632 q3.619 -3.196 8.836 -3.29 z M6.345 49.961 q0 3.619 4.794 3.619 q2.867 0 4.5825 -1.7155 t1.7625 -4.9585 l0 -1.222 l-2.397 0 q-4.136 0 -6.439 1.0575 t-2.303 3.2195 z M33.464 27.871 l0 6.251 l6.063 0 l0 3.666 l-6.063 0 l0 10.716 q0 2.162 0.611 3.337 t2.585 1.175 q1.88 0 3.008 -0.658 l0 3.854 q-1.222 0.658 -3.854 0.752 q-2.538 0 -3.9245 -0.7755 t-2.021 -2.162 t-0.6345 -4.3475 l0 -11.891 l-4.888 0 l0 -3.666 l4.888 0 l0 -6.251 l4.23 0 z M55.742000000000004 33.558 q4.935 0 8.366 3.4075 t3.478 8.2955 q0 4.935 -3.431 8.272 t-8.413 3.431 q-4.888 0 -8.319 -3.384 t-3.525 -8.319 q0 -4.841 3.4075 -8.225 t8.4365 -3.478 z M48.410000000000004 45.260999999999996 q0 3.431 2.021 5.5695 t5.311 2.1855 q3.337 0 5.311 -2.1385 t2.021 -5.6165 q0 -3.431 -1.974 -5.5695 t-5.405 -2.1855 q-3.337 0 -5.311 2.209 t-1.974 5.546 z M84.083 33.558 q4.841 0 6.956 4.136 q1.081 -1.974 2.961 -3.055 t4.089 -1.081 q8.413 0 8.46 9.682 l0 13.16 l-4.23 0 l0 -12.643 q0 -3.29 -1.175 -4.7705 t-3.619 -1.4805 q-2.867 0 -4.277 1.739 t-1.41 4.794 l0 12.361 l-4.23 0 l0 -11.985 q0 -3.948 -1.128 -5.4285 t-3.572 -1.4805 q-2.632 0 -4.2065 2.021 t-1.5745 5.123 l0 11.75 l-4.23 0 l0 -22.278 l3.948 0 l0 3.478 l0.094 0 q0.705 -1.645 2.7965 -2.8435 t4.3475 -1.1985 z M115.38499999999999 23.03 q1.269 0 2.1855 0.9165 t0.9165 2.1855 q0 1.316 -0.94 2.209 t-2.162 0.893 q-1.316 0 -2.209 -0.893 t-0.893 -2.209 t0.94 -2.209 t2.162 -0.893 z M117.49999999999999 34.122 l0 22.278 l-4.23 0 l0 -22.278 l4.23 0 z M134.796 33.605 q5.311 0 8.554 3.525 l-3.196 2.914 q-2.303 -2.491 -5.546 -2.491 q-3.102 0 -5.029 2.209 t-1.927 5.687 q0 3.29 2.021 5.405 t5.17 2.162 q3.337 0 5.405 -2.491 l3.008 3.008 q-3.008 3.431 -8.46 3.431 q-5.123 0 -8.3425 -3.196 t-3.3135 -8.413 q0.047 -5.311 3.3135 -8.507 t8.3425 -3.243 z  M170.51600000000002 33.605 q5.311 0 8.554 3.525 l-3.196 2.914 q-2.303 -2.491 -5.546 -2.491 q-3.102 0 -5.029 2.209 t-1.927 5.687 q0 3.29 2.021 5.405 t5.17 2.162 q3.337 0 5.405 -2.491 l3.008 3.008 q-3.008 3.431 -8.46 3.431 q-5.123 0 -8.3425 -3.196 t-3.3135 -8.413 q0.047 -5.311 3.3135 -8.507 t8.3425 -3.243 z M193.358 33.558 q4.935 0 8.366 3.4075 t3.478 8.2955 q0 4.935 -3.431 8.272 t-8.413 3.431 q-4.888 0 -8.319 -3.384 t-3.525 -8.319 q0 -4.841 3.4075 -8.225 t8.4365 -3.478 z M186.026 45.260999999999996 q0 3.431 2.021 5.5695 t5.311 2.1855 q3.337 0 5.311 -2.1385 t2.021 -5.6165 q0 -3.431 -1.974 -5.5695 t-5.405 -2.1855 q-3.337 0 -5.311 2.209 t-1.974 5.546 z M222.169 33.558 q3.76 0 5.8985 2.256 t2.1855 6.063 l0 14.523 l-4.23 0 l0 -13.301 q0 -2.585 -1.3395 -4.089 t-3.7365 -1.504 q-2.961 0 -4.5825 1.974 t-1.6215 5.264 l0 11.656 l-4.23 0 l0 -22.278 l4.23 0 l0 3.431 l0.094 0 q0.893 -1.88 2.8905 -2.9375 t4.4415 -1.0575 z M244.16500000000002 33.558 q2.538 0 4.5355 0.94 t3.0785 2.726 l-3.29 2.491 q-1.88 -2.209 -4.559 -2.209 q-1.598 0 -2.6555 0.705 t-1.0575 1.786 q0 2.35 4.371 3.196 q4.277 0.799 6.0395 2.35 t1.7625 4.418 q0 3.243 -2.4675 5.0995 t-6.6035 1.9035 q-3.102 0 -5.0995 -0.9635 t-3.4545 -2.9845 l3.196 -2.632 q2.538 2.632 5.405 2.632 q1.88 0 3.196 -0.752 t1.316 -2.068 q0 -2.303 -4.23 -3.196 q-4.7 -0.94 -6.3215 -2.5145 t-1.6215 -4.0655 q0 -3.102 2.397 -4.9585 t6.063 -1.9035 z M261.743 34.122 l0 13.348 q0 2.632 1.3865 4.089 t3.6895 1.457 q2.961 0 4.5825 -1.9505 t1.6215 -5.2875 l0 -11.656 l4.23 0 l0 22.278 l-4.23 0 l0 -3.431 l-0.094 0 q-0.893 1.88 -2.914 2.9375 t-4.418 1.0575 q-3.713 0 -5.8985 -2.303 t-2.1855 -6.016 l0 -14.523 l4.23 0 z M288.204 20.868000000000002 l0 35.532 l-4.23 0 l0 -35.532 l4.23 0 z M300.8 27.871 l0 6.251 l6.063 0 l0 3.666 l-6.063 0 l0 10.716 q0 2.162 0.611 3.337 t2.585 1.175 q1.88 0 3.008 -0.658 l0 3.854 q-1.222 0.658 -3.854 0.752 q-2.538 0 -3.9245 -0.7755 t-2.021 -2.162 t-0.6345 -4.3475 l0 -11.891 l-4.888 0 l0 -3.666 l4.888 0 l0 -6.251 l4.23 0 z M314.75899999999996 23.03 q1.269 0 2.1855 0.9165 t0.9165 2.1855 q0 1.316 -0.94 2.209 t-2.162 0.893 q-1.316 0 -2.209 -0.893 t-0.893 -2.209 t0.94 -2.209 t2.162 -0.893 z M316.87399999999997 34.122 l0 22.278 l-4.23 0 l0 -22.278 l4.23 0 z M335.2509999999999 33.558 q3.76 0 5.8985 2.256 t2.1855 6.063 l0 14.523 l-4.23 0 l0 -13.301 q0 -2.585 -1.3395 -4.089 t-3.7365 -1.504 q-2.961 0 -4.5825 1.974 t-1.6215 5.264 l0 11.656 l-4.23 0 l0 -22.278 l4.23 0 l0 3.431 l0.094 0 q0.893 -1.88 2.8905 -2.9375 t4.4415 -1.0575 z M359.97299999999996 33.558 q2.397 0 4.465 0.987 t3.29 2.773 l0.094 0 l0 -3.196 l4.23 0 l0 22.278 q-0.047 4.935 -3.384 8.084 t-8.789 3.196 q-6.909 0 -10.904 -3.995 l2.867 -3.572 q3.337 3.619 7.99 3.619 q3.995 0 5.9925 -2.0445 t1.9975 -5.5695 l0 -3.384 l-0.141 0 q-1.128 1.974 -3.2665 2.961 t-4.4415 0.987 q-4.888 0 -8.084 -3.2665 t-3.243 -8.0605 q0.047 -5.358 3.2195 -8.554 t8.1075 -3.243 z M353.15799999999996 45.260999999999996 q0 3.337 1.9505 5.358 t5.3815 2.115 q3.384 0 5.3345 -2.021 t1.9975 -5.452 q0 -3.478 -1.9975 -5.593 t-5.3815 -2.162 q-3.337 0 -5.311 2.209 t-1.974 5.546 z"/></g><g id="SvgjsG1009" rel="mainfill" name="symbol" xmlns:name="symbol_mainfill" fill="#000000" transform="translate(-10.789047375002477, -16.1305775622262) scale(1.2178957731774842)"><g xmlns="http://www.w3.org/2000/svg" transform="translate(0,-952.36218)"><path d="m 70.316959,968.56746 c -2.65796,2.661 -3.07486,6.7314 -1.22184,9.8171 l -19.39274,19.4148 c -0.84173,-0.3003 -1.74956,-0.4706 -2.69431,-0.4706 -0.95858,0 -1.87349,0.1937 -2.72563,0.5019 l -13.31489,-13.3299 c 1.82988,-3.0816 1.42636,-7.1345 -1.22184,-9.7858 -3.50576,-2.9607 -8.3337,-2.9199 -11.34115,0 -3.13216,3.1357 -3.13221,8.2493 0,11.3854 2.64082,2.6435 6.6685,3.0375 9.74337,1.2232 l 12.75096,12.79674 c -1.20371,1.4046 -1.91108,3.2424 -1.91108,5.2379 0,1.1091 0.22073,2.1763 0.62658,3.1364 l -15.38261,8.8763 c -2.4396,-3.0157 -6.74999,-3.8837 -10.2133,-1.8819 -3.83617,2.2173 -5.1597198,7.106 -2.94494,10.9462 2.21481,3.8407 7.12904,5.1657 10.9652,2.9484 3.00164,-1.7353 4.45371,-5.113 3.88482,-8.3431 l 16.16584,-9.3466 c 1.35984,1.0613 3.06047,1.6936 4.91867,1.6936 1.81531,0 3.48057,-0.6127 4.82469,-1.6309 l 22.74496,15.4628 c -1.5408,3.674 -0.15374,8.0235 3.38355,10.0681 3.83609,2.2173 8.75042,0.8921 10.9652,-2.9484 2.2148,-3.8403 0.89115,-8.7602 -2.94494,-10.9775 -2.91792,-1.6866 -6.45964,-1.2994 -8.96013,0.6586 l -22.68231,-15.4001 c 0.44144,-0.9946 0.68925,-2.1028 0.68925,-3.2619 0,-2.003 -0.73043,-3.8313 -1.94241,-5.2379 l 18.89147,-18.91284 c 3.06707,1.7738 7.05694,1.3407 9.68071,-1.286 3.13216,-3.1357 3.13218,-8.2183 0,-11.354 -3.50582,-2.9607 -8.33359,-2.92 -11.34115,0 z" style="color:;enable-background:accumulate;" fill="" stroke="none" marker="none" visibility="visible" display="inline" overflow="visible"/></g></g>
			</g>
		</svg>
    