
		<svg width="3125.7130184305383" height="691.4216013679613" xmlns="http://www.w3.org/2000/svg" xmlns:xlink="http://www.w3.org/1999/xlink" version="1.1">
            <g transform="scale(6.285650921526921) translate(10, 10)">
				<defs id="SvgjsDefs1002"/><g id="main_text" rel="mainfill" name="main_text" xmlns:name="mainText_mainfill" fill="#000000" transform="translate(113.14152933195601, -13.154287338256836)"><path d="M11.868 32.843999999999994 q4.14 0 6.555 1.886 t2.553 5.244 l0 11.684 q0 1.656 0.184 3.542 l-3.68 0 q-0.138 -1.472 -0.138 -3.312 l-0.092 0 q-1.426 2.116 -3.289 2.99 t-4.347 0.874 q-3.358 0 -5.451 -1.794 t-2.093 -4.738 q0 -3.726 3.128 -5.635 t8.832 -1.909 l3.082 0 l0 -0.782 q0 -2.208 -1.449 -3.473 t-3.795 -1.265 q-1.748 0 -3.059 0.529 t-3.105 1.955 l-2.484 -2.576 q3.542 -3.128 8.648 -3.22 z M6.21 48.897999999999996 q0 3.542 4.692 3.542 q2.806 0 4.485 -1.679 t1.725 -4.853 l0 -1.196 l-2.346 0 q-4.048 0 -6.302 1.035 t-2.254 3.151 z M32.751999999999995 27.277999999999995 l0 6.118 l5.934 0 l0 3.588 l-5.934 0 l0 10.488 q0 2.116 0.598 3.266 t2.53 1.15 q1.84 0 2.944 -0.644 l0 3.772 q-1.196 0.644 -3.772 0.736 q-2.484 0 -3.841 -0.759 t-1.978 -2.116 t-0.621 -4.255 l0 -11.638 l-4.784 0 l0 -3.588 l4.784 0 l0 -6.118 l4.14 0 z M54.556 32.843999999999994 q4.83 0 8.188 3.335 t3.404 8.119 q0 4.83 -3.358 8.096 t-8.234 3.358 q-4.784 0 -8.142 -3.312 t-3.45 -8.142 q0 -4.738 3.335 -8.05 t8.257 -3.404 z M47.379999999999995 44.297999999999995 q0 3.358 1.978 5.451 t5.198 2.139 q3.266 0 5.198 -2.093 t1.978 -5.497 q0 -3.358 -1.932 -5.451 t-5.29 -2.139 q-3.266 0 -5.198 2.162 t-1.932 5.428 z M82.29399999999998 32.843999999999994 q4.738 0 6.808 4.048 q1.058 -1.932 2.898 -2.99 t4.002 -1.058 q8.234 0 8.28 9.476 l0 12.88 l-4.14 0 l0 -12.374 q0 -3.22 -1.15 -4.669 t-3.542 -1.449 q-2.806 0 -4.186 1.702 t-1.38 4.692 l0 12.098 l-4.14 0 l0 -11.73 q0 -3.864 -1.104 -5.313 t-3.496 -1.449 q-2.576 0 -4.117 1.978 t-1.541 5.014 l0 11.5 l-4.14 0 l0 -21.804 l3.864 0 l0 3.404 l0.092 0 q0.69 -1.61 2.737 -2.783 t4.255 -1.173 z M112.92999999999999 22.54 q1.242 0 2.139 0.897 t0.897 2.139 q0 1.288 -0.92 2.162 t-2.116 0.874 q-1.288 0 -2.162 -0.874 t-0.874 -2.162 t0.92 -2.162 t2.116 -0.874 z M115 33.396 l0 21.804 l-4.14 0 l0 -21.804 l4.14 0 z M131.928 32.89 q5.198 0 8.372 3.45 l-3.128 2.852 q-2.254 -2.438 -5.428 -2.438 q-3.036 0 -4.922 2.162 t-1.886 5.566 q0 3.22 1.978 5.29 t5.06 2.116 q3.266 0 5.29 -2.438 l2.944 2.944 q-2.944 3.358 -8.28 3.358 q-5.014 0 -8.165 -3.128 t-3.243 -8.234 q0.046 -5.198 3.243 -8.326 t8.165 -3.174 z  M166.888 32.89 q5.198 0 8.372 3.45 l-3.128 2.852 q-2.254 -2.438 -5.428 -2.438 q-3.036 0 -4.922 2.162 t-1.886 5.566 q0 3.22 1.978 5.29 t5.06 2.116 q3.266 0 5.29 -2.438 l2.944 2.944 q-2.944 3.358 -8.28 3.358 q-5.014 0 -8.165 -3.128 t-3.243 -8.234 q0.046 -5.198 3.243 -8.326 t8.165 -3.174 z M189.244 32.843999999999994 q4.83 0 8.188 3.335 t3.404 8.119 q0 4.83 -3.358 8.096 t-8.234 3.358 q-4.784 0 -8.142 -3.312 t-3.45 -8.142 q0 -4.738 3.335 -8.05 t8.257 -3.404 z M182.06799999999998 44.297999999999995 q0 3.358 1.978 5.451 t5.198 2.139 q3.266 0 5.198 -2.093 t1.978 -5.497 q0 -3.358 -1.932 -5.451 t-5.29 -2.139 q-3.266 0 -5.198 2.162 t-1.932 5.428 z M217.442 32.843999999999994 q3.68 0 5.773 2.208 t2.139 5.934 l0 14.214 l-4.14 0 l0 -13.018 q0 -2.53 -1.311 -4.002 t-3.657 -1.472 q-2.898 0 -4.485 1.932 t-1.587 5.152 l0 11.408 l-4.14 0 l0 -21.804 l4.14 0 l0 3.358 l0.092 0 q0.874 -1.84 2.829 -2.875 t4.347 -1.035 z M238.97 32.843999999999994 q2.484 0 4.439 0.92 t3.013 2.668 l-3.22 2.438 q-1.84 -2.162 -4.462 -2.162 q-1.564 0 -2.599 0.69 t-1.035 1.748 q0 2.3 4.278 3.128 q4.186 0.782 5.911 2.3 t1.725 4.324 q0 3.174 -2.415 4.991 t-6.463 1.863 q-3.036 0 -4.991 -0.943 t-3.381 -2.921 l3.128 -2.576 q2.484 2.576 5.29 2.576 q1.84 0 3.128 -0.736 t1.288 -2.024 q0 -2.254 -4.14 -3.128 q-4.6 -0.92 -6.187 -2.461 t-1.587 -3.979 q0 -3.036 2.346 -4.853 t5.934 -1.863 z M256.174 33.396 l0 13.064 q0 2.576 1.357 4.002 t3.611 1.426 q2.898 0 4.485 -1.909 t1.587 -5.175 l0 -11.408 l4.14 0 l0 21.804 l-4.14 0 l0 -3.358 l-0.092 0 q-0.874 1.84 -2.852 2.875 t-4.324 1.035 q-3.634 0 -5.773 -2.254 t-2.139 -5.888 l0 -14.214 l4.14 0 z M282.072 20.423999999999992 l0 34.776 l-4.14 0 l0 -34.776 l4.14 0 z M294.40000000000003 27.277999999999995 l0 6.118 l5.934 0 l0 3.588 l-5.934 0 l0 10.488 q0 2.116 0.598 3.266 t2.53 1.15 q1.84 0 2.944 -0.644 l0 3.772 q-1.196 0.644 -3.772 0.736 q-2.484 0 -3.841 -0.759 t-1.978 -2.116 t-0.621 -4.255 l0 -11.638 l-4.784 0 l0 -3.588 l4.784 0 l0 -6.118 l4.14 0 z M308.062 22.54 q1.242 0 2.139 0.897 t0.897 2.139 q0 1.288 -0.92 2.162 t-2.116 0.874 q-1.288 0 -2.162 -0.874 t-0.874 -2.162 t0.92 -2.162 t2.116 -0.874 z M310.132 33.396 l0 21.804 l-4.14 0 l0 -21.804 l4.14 0 z M328.11800000000005 32.843999999999994 q3.68 0 5.773 2.208 t2.139 5.934 l0 14.214 l-4.14 0 l0 -13.018 q0 -2.53 -1.311 -4.002 t-3.657 -1.472 q-2.898 0 -4.485 1.932 t-1.587 5.152 l0 11.408 l-4.14 0 l0 -21.804 l4.14 0 l0 3.358 l0.092 0 q0.874 -1.84 2.829 -2.875 t4.347 -1.035 z M352.3140000000001 32.843999999999994 q2.346 0 4.37 0.966 t3.22 2.714 l0.092 0 l0 -3.128 l4.14 0 l0 21.804 q-0.046 4.83 -3.312 7.912 t-8.602 3.128 q-6.762 0 -10.672 -3.91 l2.806 -3.496 q3.266 3.542 7.82 3.542 q3.91 0 5.865 -2.001 t1.955 -5.451 l0 -3.312 l-0.138 0 q-1.104 1.932 -3.197 2.898 t-4.347 0.966 q-4.784 0 -7.912 -3.197 t-3.174 -7.889 q0.046 -5.244 3.151 -8.372 t7.935 -3.174 z M345.64400000000006 44.297999999999995 q0 3.266 1.909 5.244 t5.267 2.07 q3.312 0 5.221 -1.978 t1.955 -5.336 q0 -3.404 -1.955 -5.474 t-5.267 -2.116 q-3.266 0 -5.198 2.162 t-1.932 5.428 z"/></g><g id="slogan_text" rel="mainfill" name="slogan_text" xmlns:name="sloganText_mainfill" fill="#000000" transform="translate(114.4486196143962, 52.73029708862305)"><path d="M8.2371 23.62712 c-0.22034 -1.661 -0.2368 -3.2032 -0.16916 -4.8302 c0.084746 -2 -1.0169 -3.2881 -3.0847 -3.2881 c-1.3559 0 -2.7627 0.40678 -3.5932 0.86441 c-0.15254 0.084746 -0.25424 0.23712 -0.18644 0.38966 l0.42373 0.98305 c0.067797 0.16949 0.18644 0.22034 0.40678 0.11864 c1.0847 -0.49153 1.9661 -0.72881 2.8305 -0.72881 c0.91525 0 1.4576 0.35593 1.4237 1.322 c-3.1356 0.5422 -5.5254 1.1015 -5.5254 3.3049 c0 1.4746 1.0678 2.3219 2.7966 2.3219 c1.4408 0 2.1864 -0.44051 2.8983 -0.98288 c0.08458 0.50847 0.23712 0.89831 0.5761 0.89831 l1.0169 0 c0.15238 0 0.20322 -0.18644 0.18627 -0.37288 z M3.8815 22.627299999999998 c-0.69492 0 -1.2373 -0.23729 -1.2373 -0.88136 c0 -1.0339 1.8981 -1.3729 3.6102 -1.7288 c-0.016949 0.55932 -0.016949 1.3051 0 1.7966 c-0.55932 0.42373 -1.5085 0.81356 -2.3729 0.81356 z M15.745791525423728 24.20339 c1.8981 0.23729 3.3225 0.71186 3.2547 2.5932 c-0.050847 1.9831 -1.8983 3.2034 -4.8475 3.2034 c-2.339 0 -4 -0.98305 -3.9661 -2.7966 c0.016949 -1 0.64407 -1.6949 1.8305 -1.9322 c-1.1017 -0.18644 -2.2542 -0.83051 -2.2881 -1.9151 c-0.033898 -0.98305 0.76271 -1.678 2.0847 -1.4914 c-0.59322 -0.30525 -1.322 -1.3222 -1.339 -2.4578 c-0.050847 -2.2034 1.6271 -3.8812 3.7797 -3.8812 c1.339 0 1.7288 0.28797 3.8644 0.22017 c0.15254 0 0.27119 0.084746 0.27119 0.25407 l-0.067797 0.86475 c-0.16949 0.15238 -0.69492 0.16933 -1.0678 0.20322 c0.76271 0.69492 0.91525 1.5424 0.91525 2.3559 c0 2.2203 -1.7292 3.678 -3.7631 3.6102 c-0.81356 -0.033898 -1.3898 -0.25407 -1.7629 -0.38966 c-0.6778 -0.16949 -1.1356 0.033898 -1.1186 0.45763 c0.033898 0.42373 0.61017 0.6439 1.5254 0.76271 c1.1525 0.15221 2.0169 0.2539 2.6949 0.33864 z M14.339691525423728 17.2712 c-1.1525 0 -2.0678 0.88136 -2.0678 2.0508 c0 1.0508 0.9322 1.9661 2.0508 1.9661 c1.2542 0.016949 2.0339 -0.86441 2.0507 -1.9661 c-0.016784 -1.1695 -0.89814 -2.0508 -2.0337 -2.0508 z M14.339691525423728 28.3049 c1.4237 0 2.661 -0.45746 2.6949 -1.4236 c0.016949 -0.52542 -0.35593 -0.81356 -1.2373 -0.98305 c-0.64407 -0.11881 -1.4915 -0.23746 -2.4068 -0.33915 c-0.66102 -0.084746 -1.339 0.45763 -1.3559 1.2881 c-0.033898 1.1017 1 1.4576 2.3051 1.4576 z M21.74557288135593 12.492 c-0.55915 0 -1.0168 -0.44068 -1.0168 -1.0169 c0 -0.55932 0.45763 -1.0169 1.0168 -1.0169 c0.55932 0 1.0169 0.45763 1.0169 1.0169 c0 0.57627 -0.45763 1.0169 -1.0169 1.0169 z M22.40657288135593 15.6102 l-1.3051 0 c-0.16949 0 -0.27119 0.11881 -0.27119 0.27119 l0 7.4407 c0 0.38983 0.23729 0.6778 0.64407 0.6778 l0.94915 0 c0.15254 0 0.25424 -0.10153 0.25424 -0.28797 l0 -7.8305 c0 -0.15238 -0.11864 -0.27119 -0.27119 -0.27119 z M26.79665254237288 10.441 l-1.3053 0 c-0.16933 0 -0.27119 0.11864 -0.27119 0.27119 l0 12.61 c0 0.38983 0.23746 0.6778 0.66119 0.6778 l0.91525 0 c0.16949 0 0.27119 -0.10153 0.27119 -0.28797 l0 -13 c0 -0.15254 -0.11864 -0.27119 -0.27119 -0.27119 z M36.13558644067797 20.4915 c0.61 0 1.0336 -0.30508 1.0336 -1.0169 c0 -2.0847 -1.6102 -3.9831 -4.0847 -3.9831 c-2.3559 0 -4.2034 1.8644 -4.2034 4.3051 c0 2.5422 1.9322 4.288 4.3051 4.288 c1.5085 0 2.6949 -0.61017 3.4237 -1.5932 c0.10186 -0.13559 0.067963 -0.23729 -0.033568 -0.37288 l-0.32203 -0.42373 c-0.13559 -0.16933 -0.27119 -0.15254 -0.44085 -0.050847 c-0.5422 0.44068 -1.4405 0.81373 -2.4236 0.81373 c-1.3898 0 -2.3729 -0.84746 -2.5593 -1.9661 l5.3051 0 z M30.830386440677966 19.0508 c0.067797 -0.81356 0.83051 -1.8644 2.2203 -1.8644 c1.4068 0 2.1356 1.0678 2.1864 1.8644 l-4.4068 0 z  M43.27101711864406 22.7798 l0.5761 -0.91508 c0.11864 -0.18661 0.22034 -0.23746 0.38983 -0.15271 c0.016949 0.033898 1.0508 0.64407 2.1864 0.64407 c0.98305 0 1.322 -0.38983 1.322 -0.77966 c0 -0.57627 -0.62712 -0.77949 -1.7627 -1.0676 c-1.6102 -0.42373 -2.678 -1.2542 -2.678 -2.5424 c0 -1.2712 1.0847 -2.4576 3.1186 -2.4576 c1.2373 0 2.0847 0.42373 2.7627 0.81356 c0.16949 0.10169 0.25424 0.25424 0.15254 0.38983 l-0.62712 0.9661 c-0.084746 0.13559 -0.22034 0.18644 -0.37288 0.13559 c-0.44068 -0.22017 -1.1525 -0.54237 -1.9153 -0.54237 c-0.94915 0 -1.2034 0.47458 -1.2034 0.76271 c0 0.49153 0.71186 0.72881 1.5763 0.96593 c1.5086 0.40678 3.0171 1.1356 3.0171 2.6102 c0 1.4237 -1.3558 2.5083 -3.3898 2.5083 c-1.3898 0 -2.6441 -0.6778 -3.0678 -1.0168 c-0.11864 -0.067797 -0.15254 -0.23729 -0.084746 -0.32203 z M55.59307118644067 24.11864 c2.3729 0 4.339 -1.8812 4.339 -4.3049 c0 -2.4746 -1.9661 -4.322 -4.339 -4.322 s-4.339 1.8475 -4.339 4.322 c0 2.4237 1.9661 4.3049 4.339 4.3049 z M55.59307118644067 22.39 c-1.4576 0 -2.5424 -1.2034 -2.5424 -2.5593 c0 -1.4068 1.0847 -2.6102 2.5424 -2.6102 s2.5424 1.2034 2.5424 2.6102 c0 1.3559 -1.0847 2.5593 -2.5424 2.5593 z M68.28796949152542 10.932 c0.11864 0.067631 0.18627 0.22017 0.11848 0.35576 l-0.47458 1.0508 c-0.067797 0.15254 -0.20339 0.18644 -0.37288 0.13559 c-0.23729 -0.11864 -0.72881 -0.37288 -1.3729 -0.37288 s-1.7119 0.35593 -1.7119 1.661 l0 1.8475 l2.0169 0 c0.13559 0 0.22034 0.084746 0.22034 0.22034 l0 1.2881 c0 0.11864 -0.084746 0.20339 -0.22034 0.20339 l-2.0169 0 l0 6.3898 c0 0.16949 -0.10169 0.28814 -0.27119 0.28814 l-0.9322 0 c-0.42373 0 -0.64407 -0.28797 -0.64407 -0.69475 l0 -5.9831 l-1.2034 0 c-0.13559 0 -0.22034 -0.067797 -0.22034 -0.18644 l0 -1.0339 c0 -0.32203 0.20339 -0.49153 0.50847 -0.49153 l0.91525 0 l0 -1.8475 c0 -2.3051 1.5254 -3.4069 3.5086 -3.4069 c0.84746 0 1.5932 0.23746 2.1525 0.57644 z M73.96590847457627 23.4578 c0.050847 0.13559 -0.050681 0.22 -0.16933 0.30475 c-0.28814 0.18644 -0.91525 0.32203 -1.5424 0.32203 c-1.8136 0 -2.4746 -0.9322 -2.4746 -3.1186 l0 -3.5763 l-1 0 c-0.15254 0 -0.27119 -0.10169 -0.27119 -0.27119 l0 -0.28814 c0 -0.13559 0.033898 -0.23712 0.13559 -0.33898 c0.98305 -0.79661 1.7627 -1.6269 2.4407 -3.339 c0.050847 -0.11864 0.10169 -0.18644 0.18644 -0.18644 l0.18644 0 c0.13559 0 0.18644 0.067797 0.18644 0.22034 l0 2.4237 l1.7797 0 c0.15254 0 0.28814 0.11881 0.28814 0.28831 l0 1.2203 c0 0.15254 -0.13559 0.27119 -0.28814 0.27119 l-1.4746 0 c-0.13559 0 -0.25424 -0.016949 -0.32203 -0.050847 l0 3.4576 c0 0.98305 0.11864 1.5424 0.94915 1.5424 c0.35593 0 0.59322 -0.050847 0.79661 -0.10169 s0.33898 0.033898 0.37288 0.22051 z M87.76301694915254 15.6102 c0.20339 0 0.28831 0.11881 0.20356 0.30525 l-3.1695 7.8983 c-0.033898 0.10169 -0.15254 0.18627 -0.27119 0.18627 l-0.20339 0 c-0.13559 0 -0.23729 -0.08458 -0.30508 -0.18627 l-2.4746 -5.1186 l-2.4746 5.1186 c-0.050847 0.10169 -0.16949 0.18627 -0.28814 0.18627 l-0.22034 0 c-0.11864 0 -0.22034 -0.08458 -0.27119 -0.18627 l-3.1695 -7.8983 c-0.067797 -0.18644 0.016784 -0.30525 0.20339 -0.30525 l1.4066 0 c0.13559 0 0.25441 0.084746 0.30525 0.18661 l1.8981 5.1695 l2.1525 -5.0847 c0.050847 -0.11864 0.15271 -0.18644 0.3222 -0.18644 l0.28814 0 c0.16949 0 0.25424 0.067797 0.30508 0.18644 l2.1695 5.0847 l1.8814 -5.1695 c0.050847 -0.10186 0.15238 -0.18661 0.30492 -0.18661 l1.4068 0 z M96.66082881355932 23.62712 c-0.22034 -1.661 -0.2368 -3.2032 -0.16916 -4.8302 c0.084746 -2 -1.0169 -3.2881 -3.0847 -3.2881 c-1.3559 0 -2.7627 0.40678 -3.5932 0.86441 c-0.15254 0.084746 -0.25424 0.23712 -0.18644 0.38966 l0.42373 0.98305 c0.067797 0.16949 0.18644 0.22034 0.40678 0.11864 c1.0847 -0.49153 1.9661 -0.72881 2.8305 -0.72881 c0.91525 0 1.4576 0.35593 1.4237 1.322 c-3.1356 0.5422 -5.5254 1.1015 -5.5254 3.3049 c0 1.4746 1.0678 2.3219 2.7966 2.3219 c1.4408 0 2.1864 -0.44051 2.8983 -0.98288 c0.08458 0.50847 0.23712 0.89831 0.5761 0.89831 l1.0169 0 c0.15238 0 0.20322 -0.18644 0.18627 -0.37288 z M92.30522881355932 22.627299999999998 c-0.69492 0 -1.2373 -0.23729 -1.2373 -0.88136 c0 -1.0339 1.8981 -1.3729 3.6102 -1.7288 c-0.016949 0.55932 -0.016949 1.3051 0 1.7966 c-0.55932 0.42373 -1.5085 0.81356 -2.3729 0.81356 z M104.54222033898304 16.0341 c0.18644 0.11864 0.23729 0.22017 0.11848 0.40661 l-0.69475 1.0169 c-0.084746 0.11864 -0.20339 0.15254 -0.35593 0.11864 c-0.35593 -0.16949 -0.66102 -0.32203 -1.2203 -0.32203 s-1.4407 0.23729 -1.9153 1.2881 l0 5.1866 c0 0.15238 -0.10169 0.27102 -0.25424 0.27102 l-1.339 0 c-0.15254 0 -0.25424 -0.11864 -0.25424 -0.27102 l0 -7.8476 c0 -0.15238 0.11864 -0.27119 0.25424 -0.27119 l0.9322 0 c0.40678 0 0.66102 0.42373 0.66102 0.72881 l0 0.11881 c0.59322 -0.54237 1.3051 -0.91525 2.2373 -0.91525 c0.86441 0 1.5085 0.27119 1.8305 0.49153 z M112.94914576271186 20.4915 c0.61 0 1.0336 -0.30508 1.0336 -1.0169 c0 -2.0847 -1.6102 -3.9831 -4.0847 -3.9831 c-2.3559 0 -4.2034 1.8644 -4.2034 4.3051 c0 2.5422 1.9322 4.288 4.3051 4.288 c1.5085 0 2.6949 -0.61017 3.4237 -1.5932 c0.10186 -0.13559 0.067963 -0.23729 -0.033568 -0.37288 l-0.32203 -0.42373 c-0.13559 -0.16933 -0.27119 -0.15254 -0.44085 -0.050847 c-0.5422 0.44068 -1.4405 0.81373 -2.4236 0.81373 c-1.3898 0 -2.3729 -0.84746 -2.5593 -1.9661 l5.3051 0 z M107.64394576271187 19.0508 c0.067797 -0.81356 0.83051 -1.8644 2.2203 -1.8644 c1.4068 0 2.1356 1.0678 2.1864 1.8644 l-4.4068 0 z  M127.13558644067797 20.4915 c0.61 0 1.0336 -0.30508 1.0336 -1.0169 c0 -2.0847 -1.6102 -3.9831 -4.0847 -3.9831 c-2.3559 0 -4.2034 1.8644 -4.2034 4.3051 c0 2.5422 1.9322 4.288 4.3051 4.288 c1.5085 0 2.6949 -0.61017 3.4237 -1.5932 c0.10186 -0.13559 0.067963 -0.23729 -0.033568 -0.37288 l-0.32203 -0.42373 c-0.13559 -0.16933 -0.27119 -0.15254 -0.44085 -0.050847 c-0.5422 0.44068 -1.4405 0.81373 -2.4236 0.81373 c-1.3898 0 -2.3729 -0.84746 -2.5593 -1.9661 l5.3051 0 z M121.83038644067797 19.0508 c0.067797 -0.81356 0.83051 -1.8644 2.2203 -1.8644 c1.4068 0 2.1356 1.0678 2.1864 1.8644 l-4.4068 0 z M137.94901016949152 23.64424 c0.033898 0.18644 -0.016784 0.35576 -0.16916 0.35576 l-1.1017 0 c-0.44068 0 -0.66102 -0.28797 -0.66102 -0.6778 l0 -4.4068 c0 -1.1186 -0.77966 -1.7627 -1.8983 -1.7627 c-0.9661 0 -1.7797 0.45763 -2.4575 1.1186 l0 5.4578 c0 0.15238 -0.11864 0.27102 -0.27119 0.27102 l-1.3222 0 c-0.15238 0 -0.25407 -0.11864 -0.25407 -0.27102 l0 -7.8476 c0 -0.15238 0.10169 -0.27119 0.25407 -0.27119 l0.91525 0 c0.40678 0 0.66102 0.42373 0.67797 0.72881 l0 0.16949 c0.66102 -0.50864 1.5422 -1.0171 2.6947 -1.0171 c1.7458 0 3.4915 1.1019 3.4915 3.2205 l0 3.7627 c0.016784 0.47458 0.050681 0.83051 0.10153 1.1695 z M145.38985932203389 24.20339 c1.8981 0.23729 3.3225 0.71186 3.2547 2.5932 c-0.050847 1.9831 -1.8983 3.2034 -4.8475 3.2034 c-2.339 0 -4 -0.98305 -3.9661 -2.7966 c0.016949 -1 0.64407 -1.6949 1.8305 -1.9322 c-1.1017 -0.18644 -2.2542 -0.83051 -2.2881 -1.9151 c-0.033898 -0.98305 0.76271 -1.678 2.0847 -1.4914 c-0.59322 -0.30525 -1.322 -1.3222 -1.339 -2.4578 c-0.050847 -2.2034 1.6271 -3.8812 3.7797 -3.8812 c1.339 0 1.7288 0.28797 3.8644 0.22017 c0.15254 0 0.27119 0.084746 0.27119 0.25407 l-0.067797 0.86475 c-0.16949 0.15238 -0.69492 0.16933 -1.0678 0.20322 c0.76271 0.69492 0.91525 1.5424 0.91525 2.3559 c0 2.2203 -1.7292 3.678 -3.7631 3.6102 c-0.81356 -0.033898 -1.3898 -0.25407 -1.7629 -0.38966 c-0.6778 -0.16949 -1.1356 0.033898 -1.1186 0.45763 c0.033898 0.42373 0.61017 0.6439 1.5254 0.76271 c1.1525 0.15221 2.0169 0.2539 2.6949 0.33864 z M143.98375932203388 17.2712 c-1.1525 0 -2.0678 0.88136 -2.0678 2.0508 c0 1.0508 0.9322 1.9661 2.0508 1.9661 c1.2542 0.016949 2.0339 -0.86441 2.0507 -1.9661 c-0.016784 -1.1695 -0.89814 -2.0508 -2.0337 -2.0508 z M143.98375932203388 28.3049 c1.4237 0 2.661 -0.45746 2.6949 -1.4236 c0.016949 -0.52542 -0.35593 -0.81356 -1.2373 -0.98305 c-0.64407 -0.11881 -1.4915 -0.23746 -2.4068 -0.33915 c-0.66102 -0.084746 -1.339 0.45763 -1.3559 1.2881 c-0.033898 1.1017 1 1.4576 2.3051 1.4576 z M151.3896406779661 12.492 c-0.55915 0 -1.0168 -0.44068 -1.0168 -1.0169 c0 -0.55932 0.45763 -1.0169 1.0168 -1.0169 c0.55932 0 1.0169 0.45763 1.0169 1.0169 c0 0.57627 -0.45763 1.0169 -1.0169 1.0169 z M152.0506406779661 15.6102 l-1.3051 0 c-0.16949 0 -0.27119 0.11881 -0.27119 0.27119 l0 7.4407 c0 0.38983 0.23729 0.6778 0.64407 0.6778 l0.94915 0 c0.15254 0 0.25424 -0.10153 0.25424 -0.28797 l0 -7.8305 c0 -0.15238 -0.11864 -0.27119 -0.27119 -0.27119 z M162.74562033898303 23.64424 c0.033898 0.18644 -0.016784 0.35576 -0.16916 0.35576 l-1.1017 0 c-0.44068 0 -0.66102 -0.28797 -0.66102 -0.6778 l0 -4.4068 c0 -1.1186 -0.77966 -1.7627 -1.8983 -1.7627 c-0.9661 0 -1.7797 0.45763 -2.4575 1.1186 l0 5.4578 c0 0.15238 -0.11864 0.27102 -0.27119 0.27102 l-1.3222 0 c-0.15238 0 -0.25407 -0.11864 -0.25407 -0.27102 l0 -7.8476 c0 -0.15238 0.10169 -0.27119 0.25407 -0.27119 l0.91525 0 c0.40678 0 0.66102 0.42373 0.67797 0.72881 l0 0.16949 c0.66102 -0.50864 1.5422 -1.0171 2.6947 -1.0171 c1.7458 0 3.4915 1.1019 3.4915 3.2205 l0 3.7627 c0.016784 0.47458 0.050681 0.83051 0.10153 1.1695 z M171.4745694915254 20.4915 c0.61 0 1.0336 -0.30508 1.0336 -1.0169 c0 -2.0847 -1.6102 -3.9831 -4.0847 -3.9831 c-2.3559 0 -4.2034 1.8644 -4.2034 4.3051 c0 2.5422 1.9322 4.288 4.3051 4.288 c1.5085 0 2.6949 -0.61017 3.4237 -1.5932 c0.10186 -0.13559 0.067963 -0.23729 -0.033568 -0.37288 l-0.32203 -0.42373 c-0.13559 -0.16933 -0.27119 -0.15254 -0.44085 -0.050847 c-0.5422 0.44068 -1.4405 0.81373 -2.4236 0.81373 c-1.3898 0 -2.3729 -0.84746 -2.5593 -1.9661 l5.3051 0 z M166.1693694915254 19.0508 c0.067797 -0.81356 0.83051 -1.8644 2.2203 -1.8644 c1.4068 0 2.1356 1.0678 2.1864 1.8644 l-4.4068 0 z M180.99999322033895 20.4915 c0.61 0 1.0336 -0.30508 1.0336 -1.0169 c0 -2.0847 -1.6102 -3.9831 -4.0847 -3.9831 c-2.3559 0 -4.2034 1.8644 -4.2034 4.3051 c0 2.5422 1.9322 4.288 4.3051 4.288 c1.5085 0 2.6949 -0.61017 3.4237 -1.5932 c0.10186 -0.13559 0.067963 -0.23729 -0.033568 -0.37288 l-0.32203 -0.42373 c-0.13559 -0.16933 -0.27119 -0.15254 -0.44085 -0.050847 c-0.5422 0.44068 -1.4405 0.81373 -2.4236 0.81373 c-1.3898 0 -2.3729 -0.84746 -2.5593 -1.9661 l5.3051 0 z M175.69479322033897 19.0508 c0.067797 -0.81356 0.83051 -1.8644 2.2203 -1.8644 c1.4068 0 2.1356 1.0678 2.1864 1.8644 l-4.4068 0 z M189.61001694915254 16.0341 c0.18644 0.11864 0.23729 0.22017 0.11848 0.40661 l-0.69475 1.0169 c-0.084746 0.11864 -0.20339 0.15254 -0.35593 0.11864 c-0.35593 -0.16949 -0.66102 -0.32203 -1.2203 -0.32203 s-1.4407 0.23729 -1.9153 1.2881 l0 5.1866 c0 0.15238 -0.10169 0.27102 -0.25424 0.27102 l-1.339 0 c-0.15254 0 -0.25424 -0.11864 -0.25424 -0.27102 l0 -7.8476 c0 -0.15238 0.11864 -0.27119 0.25424 -0.27119 l0.9322 0 c0.40678 0 0.66102 0.42373 0.66102 0.72881 l0 0.11881 c0.59322 -0.54237 1.3051 -0.91525 2.2373 -0.91525 c0.86441 0 1.5085 0.27119 1.8305 0.49153 z M192.35574237288134 12.492 c-0.55915 0 -1.0168 -0.44068 -1.0168 -1.0169 c0 -0.55932 0.45763 -1.0169 1.0168 -1.0169 c0.55932 0 1.0169 0.45763 1.0169 1.0169 c0 0.57627 -0.45763 1.0169 -1.0169 1.0169 z M193.01674237288134 15.6102 l-1.3051 0 c-0.16949 0 -0.27119 0.11881 -0.27119 0.27119 l0 7.4407 c0 0.38983 0.23729 0.6778 0.64407 0.6778 l0.94915 0 c0.15254 0 0.25424 -0.10153 0.25424 -0.28797 l0 -7.8305 c0 -0.15238 -0.11864 -0.27119 -0.27119 -0.27119 z M203.71172203389827 23.64424 c0.033898 0.18644 -0.016784 0.35576 -0.16916 0.35576 l-1.1017 0 c-0.44068 0 -0.66102 -0.28797 -0.66102 -0.6778 l0 -4.4068 c0 -1.1186 -0.77966 -1.7627 -1.8983 -1.7627 c-0.9661 0 -1.7797 0.45763 -2.4575 1.1186 l0 5.4578 c0 0.15238 -0.11864 0.27102 -0.27119 0.27102 l-1.3222 0 c-0.15238 0 -0.25407 -0.11864 -0.25407 -0.27102 l0 -7.8476 c0 -0.15238 0.10169 -0.27119 0.25407 -0.27119 l0.91525 0 c0.40678 0 0.66102 0.42373 0.67797 0.72881 l0 0.16949 c0.66102 -0.50864 1.5422 -1.0171 2.6947 -1.0171 c1.7458 0 3.4915 1.1019 3.4915 3.2205 l0 3.7627 c0.016784 0.47458 0.050681 0.83051 0.10153 1.1695 z M211.15257118644064 24.20339 c1.8981 0.23729 3.3225 0.71186 3.2547 2.5932 c-0.050847 1.9831 -1.8983 3.2034 -4.8475 3.2034 c-2.339 0 -4 -0.98305 -3.9661 -2.7966 c0.016949 -1 0.64407 -1.6949 1.8305 -1.9322 c-1.1017 -0.18644 -2.2542 -0.83051 -2.2881 -1.9151 c-0.033898 -0.98305 0.76271 -1.678 2.0847 -1.4914 c-0.59322 -0.30525 -1.322 -1.3222 -1.339 -2.4578 c-0.050847 -2.2034 1.6271 -3.8812 3.7797 -3.8812 c1.339 0 1.7288 0.28797 3.8644 0.22017 c0.15254 0 0.27119 0.084746 0.27119 0.25407 l-0.067797 0.86475 c-0.16949 0.15238 -0.69492 0.16933 -1.0678 0.20322 c0.76271 0.69492 0.91525 1.5424 0.91525 2.3559 c0 2.2203 -1.7292 3.678 -3.7631 3.6102 c-0.81356 -0.033898 -1.3898 -0.25407 -1.7629 -0.38966 c-0.6778 -0.16949 -1.1356 0.033898 -1.1186 0.45763 c0.033898 0.42373 0.61017 0.6439 1.5254 0.76271 c1.1525 0.15221 2.0169 0.2539 2.6949 0.33864 z M209.74647118644063 17.2712 c-1.1525 0 -2.0678 0.88136 -2.0678 2.0508 c0 1.0508 0.9322 1.9661 2.0508 1.9661 c1.2542 0.016949 2.0339 -0.86441 2.0507 -1.9661 c-0.016784 -1.1695 -0.89814 -2.0508 -2.0337 -2.0508 z M209.74647118644063 28.3049 c1.4237 0 2.661 -0.45746 2.6949 -1.4236 c0.016949 -0.52542 -0.35593 -0.81356 -1.2373 -0.98305 c-0.64407 -0.11881 -1.4915 -0.23746 -2.4068 -0.33915 c-0.66102 -0.084746 -1.339 0.45763 -1.3559 1.2881 c-0.033898 1.1017 1 1.4576 2.3051 1.4576 z  M224.96596949152539 15.5256 c1.9831 0 3.8814 1.6271 3.8814 4.1695 c0 2.4746 -1.5424 4.4064 -3.9322 4.4064 c-0.91525 0 -1.6949 -0.30475 -2.2881 -0.71153 l0 4.8303 c0 0.49153 -0.52542 0.76271 -0.89831 0.76271 l-0.67797 0 c-0.15254 0 -0.27119 -0.11864 -0.27119 -0.27119 l0 -11.644 c0 -0.52542 -0.084746 -0.79661 -0.13559 -1.1017 c-0.033732 -0.18644 0.017115 -0.35593 0.18661 -0.35593 l1.1525 0 c0.37288 0 0.62729 0.23729 0.64407 0.57627 c0.57627 -0.35593 1.3219 -0.66102 2.3388 -0.66102 z M224.6269694915254 22.3902 c1.3729 0 2.4068 -1.0169 2.4068 -2.6949 c0 -1.7288 -1.2712 -2.4576 -2.339 -2.4576 c-0.76271 0 -1.4576 0.27119 -2.0678 0.66102 l0 3.9322 c0.54237 0.30508 1.1864 0.55932 2 0.55932 z M236.64391525423727 16.0341 c0.18644 0.11864 0.23729 0.22017 0.11848 0.40661 l-0.69475 1.0169 c-0.084746 0.11864 -0.20339 0.15254 -0.35593 0.11864 c-0.35593 -0.16949 -0.66102 -0.32203 -1.2203 -0.32203 s-1.4407 0.23729 -1.9153 1.2881 l0 5.1866 c0 0.15238 -0.10169 0.27102 -0.25424 0.27102 l-1.339 0 c-0.15254 0 -0.25424 -0.11864 -0.25424 -0.27102 l0 -7.8476 c0 -0.15238 0.11864 -0.27119 0.25424 -0.27119 l0.9322 0 c0.40678 0 0.66102 0.42373 0.66102 0.72881 l0 0.11881 c0.59322 -0.54237 1.3051 -0.91525 2.2373 -0.91525 c0.86441 0 1.5085 0.27119 1.8305 0.49153 z M245.42354067796606 23.62712 c-0.22034 -1.661 -0.2368 -3.2032 -0.16916 -4.8302 c0.084746 -2 -1.0169 -3.2881 -3.0847 -3.2881 c-1.3559 0 -2.7627 0.40678 -3.5932 0.86441 c-0.15254 0.084746 -0.25424 0.23712 -0.18644 0.38966 l0.42373 0.98305 c0.067797 0.16949 0.18644 0.22034 0.40678 0.11864 c1.0847 -0.49153 1.9661 -0.72881 2.8305 -0.72881 c0.91525 0 1.4576 0.35593 1.4237 1.322 c-3.1356 0.5422 -5.5254 1.1015 -5.5254 3.3049 c0 1.4746 1.0678 2.3219 2.7966 2.3219 c1.4408 0 2.1864 -0.44051 2.8983 -0.98288 c0.08458 0.50847 0.23712 0.89831 0.5761 0.89831 l1.0169 0 c0.15238 0 0.20322 -0.18644 0.18627 -0.37288 z M241.06794067796605 22.627299999999998 c-0.69492 0 -1.2373 -0.23729 -1.2373 -0.88136 c0 -1.0339 1.8981 -1.3729 3.6102 -1.7288 c-0.016949 0.55932 -0.016949 1.3051 0 1.7966 c-0.55932 0.42373 -1.5085 0.81356 -2.3729 0.81356 z M254.3049322033898 22.4746 c0.10169 0.15254 0.10136 0.27119 -0.01728 0.39 c-0.74576 0.71186 -1.7288 1.2541 -2.9153 1.2541 c-2.339 0 -4.339 -1.8812 -4.339 -4.288 c0 -2.4237 2 -4.339 4.339 -4.339 c1.1864 0 2.1525 0.49153 2.8475 1.1864 c0.11864 0.11881 0.11864 0.25441 0.016949 0.38983 l-0.64407 0.81356 c-0.10169 0.13559 -0.20339 0.15254 -0.40678 0.016949 c-0.42373 -0.42373 -1 -0.67797 -1.7627 -0.67797 c-1.61 0 -2.61 1.2542 -2.61 2.5932 c0 1.322 1 2.5932 2.6271 2.5932 c0.76271 0 1.3051 -0.28814 1.7966 -0.77966 c0.18644 -0.15254 0.30525 -0.10169 0.4239 0.033898 z M261.1862474576271 23.4578 c0.050847 0.13559 -0.050681 0.22 -0.16933 0.30475 c-0.28814 0.18644 -0.91525 0.32203 -1.5424 0.32203 c-1.8136 0 -2.4746 -0.9322 -2.4746 -3.1186 l0 -3.5763 l-1 0 c-0.15254 0 -0.27119 -0.10169 -0.27119 -0.27119 l0 -0.28814 c0 -0.13559 0.033898 -0.23712 0.13559 -0.33898 c0.98305 -0.79661 1.7627 -1.6269 2.4407 -3.339 c0.050847 -0.11864 0.10169 -0.18644 0.18644 -0.18644 l0.18644 0 c0.13559 0 0.18644 0.067797 0.18644 0.22034 l0 2.4237 l1.7797 0 c0.15254 0 0.28814 0.11881 0.28814 0.28831 l0 1.2203 c0 0.15254 -0.13559 0.27119 -0.28814 0.27119 l-1.4746 0 c-0.13559 0 -0.25424 -0.016949 -0.32203 -0.050847 l0 3.4576 c0 0.98305 0.11864 1.5424 0.94915 1.5424 c0.35593 0 0.59322 -0.050847 0.79661 -0.10169 s0.33898 0.033898 0.37288 0.22051 z M264.08455593220333 12.492 c-0.55915 0 -1.0168 -0.44068 -1.0168 -1.0169 c0 -0.55932 0.45763 -1.0169 1.0168 -1.0169 c0.55932 0 1.0169 0.45763 1.0169 1.0169 c0 0.57627 -0.45763 1.0169 -1.0169 1.0169 z M264.74555593220333 15.6102 l-1.3051 0 c-0.16949 0 -0.27119 0.11881 -0.27119 0.27119 l0 7.4407 c0 0.38983 0.23729 0.6778 0.64407 0.6778 l0.94915 0 c0.15254 0 0.25424 -0.10153 0.25424 -0.28797 l0 -7.8305 c0 -0.15238 -0.11864 -0.27119 -0.27119 -0.27119 z M274.23713559322033 22.4746 c0.10169 0.15254 0.10136 0.27119 -0.01728 0.39 c-0.74576 0.71186 -1.7288 1.2541 -2.9153 1.2541 c-2.339 0 -4.339 -1.8812 -4.339 -4.288 c0 -2.4237 2 -4.339 4.339 -4.339 c1.1864 0 2.1525 0.49153 2.8475 1.1864 c0.11864 0.11881 0.11864 0.25441 0.016949 0.38983 l-0.64407 0.81356 c-0.10169 0.13559 -0.20339 0.15254 -0.40678 0.016949 c-0.42373 -0.42373 -1 -0.67797 -1.7627 -0.67797 c-1.61 0 -2.61 1.2542 -2.61 2.5932 c0 1.322 1 2.5932 2.6271 2.5932 c0.76271 0 1.3051 -0.28814 1.7966 -0.77966 c0.18644 -0.15254 0.30525 -0.10169 0.4239 0.033898 z M282.8474508474576 20.4915 c0.61 0 1.0336 -0.30508 1.0336 -1.0169 c0 -2.0847 -1.6102 -3.9831 -4.0847 -3.9831 c-2.3559 0 -4.2034 1.8644 -4.2034 4.3051 c0 2.5422 1.9322 4.288 4.3051 4.288 c1.5085 0 2.6949 -0.61017 3.4237 -1.5932 c0.10186 -0.13559 0.067963 -0.23729 -0.033568 -0.37288 l-0.32203 -0.42373 c-0.13559 -0.16933 -0.27119 -0.15254 -0.44085 -0.050847 c-0.5422 0.44068 -1.4405 0.81373 -2.4236 0.81373 c-1.3898 0 -2.3729 -0.84746 -2.5593 -1.9661 l5.3051 0 z M277.5422508474576 19.0508 c0.067797 -0.81356 0.83051 -1.8644 2.2203 -1.8644 c1.4068 0 2.1356 1.0678 2.1864 1.8644 l-4.4068 0 z M285.3218645762712 22.7798 l0.5761 -0.91508 c0.11864 -0.18661 0.22034 -0.23746 0.38983 -0.15271 c0.016949 0.033898 1.0508 0.64407 2.1864 0.64407 c0.98305 0 1.322 -0.38983 1.322 -0.77966 c0 -0.57627 -0.62712 -0.77949 -1.7627 -1.0676 c-1.6102 -0.42373 -2.678 -1.2542 -2.678 -2.5424 c0 -1.2712 1.0847 -2.4576 3.1186 -2.4576 c1.2373 0 2.0847 0.42373 2.7627 0.81356 c0.16949 0.10169 0.25424 0.25424 0.15254 0.38983 l-0.62712 0.9661 c-0.084746 0.13559 -0.22034 0.18644 -0.37288 0.13559 c-0.44068 -0.22017 -1.1525 -0.54237 -1.9153 -0.54237 c-0.94915 0 -1.2034 0.47458 -1.2034 0.76271 c0 0.49153 0.71186 0.72881 1.5763 0.96593 c1.5086 0.40678 3.0171 1.1356 3.0171 2.6102 c0 1.4237 -1.3558 2.5083 -3.3898 2.5083 c-1.3898 0 -2.6441 -0.6778 -3.0678 -1.0168 c-0.11864 -0.067797 -0.15254 -0.23729 -0.084746 -0.32203 z"/></g><g id="SvgjsG1010" rel="mainfill" name="symbol" xmlns:name="symbol_mainfill" fill="#000000" transform="translate(-10.789047375002477, -16.1305775622262) scale(1.2178957731774842)"><g xmlns="http://www.w3.org/2000/svg" transform="translate(0,-952.36218)"><path d="m 70.316959,968.56746 c -2.65796,2.661 -3.07486,6.7314 -1.22184,9.8171 l -19.39274,19.4148 c -0.84173,-0.3003 -1.74956,-0.4706 -2.69431,-0.4706 -0.95858,0 -1.87349,0.1937 -2.72563,0.5019 l -13.31489,-13.3299 c 1.82988,-3.0816 1.42636,-7.1345 -1.22184,-9.7858 -3.50576,-2.9607 -8.3337,-2.9199 -11.34115,0 -3.13216,3.1357 -3.13221,8.2493 0,11.3854 2.64082,2.6435 6.6685,3.0375 9.74337,1.2232 l 12.75096,12.79674 c -1.20371,1.4046 -1.91108,3.2424 -1.91108,5.2379 0,1.1091 0.22073,2.1763 0.62658,3.1364 l -15.38261,8.8763 c -2.4396,-3.0157 -6.74999,-3.8837 -10.2133,-1.8819 -3.83617,2.2173 -5.1597198,7.106 -2.94494,10.9462 2.21481,3.8407 7.12904,5.1657 10.9652,2.9484 3.00164,-1.7353 4.45371,-5.113 3.88482,-8.3431 l 16.16584,-9.3466 c 1.35984,1.0613 3.06047,1.6936 4.91867,1.6936 1.81531,0 3.48057,-0.6127 4.82469,-1.6309 l 22.74496,15.4628 c -1.5408,3.674 -0.15374,8.0235 3.38355,10.0681 3.83609,2.2173 8.75042,0.8921 10.9652,-2.9484 2.2148,-3.8403 0.89115,-8.7602 -2.94494,-10.9775 -2.91792,-1.6866 -6.45964,-1.2994 -8.96013,0.6586 l -22.68231,-15.4001 c 0.44144,-0.9946 0.68925,-2.1028 0.68925,-3.2619 0,-2.003 -0.73043,-3.8313 -1.94241,-5.2379 l 18.89147,-18.91284 c 3.06707,1.7738 7.05694,1.3407 9.68071,-1.286 3.13216,-3.1357 3.13218,-8.2183 0,-11.354 -3.50582,-2.9607 -8.33359,-2.92 -11.34115,0 z" style="color:;enable-background:accumulate;" fill="" stroke="none" marker="none" visibility="visible" display="inline" overflow="visible"/></g></g>
			</g>
		</svg>
    